<svg 
 xmlns="http://www.w3.org/2000/svg"
 xmlns:xlink="http://www.w3.org/1999/xlink"
 width="16px" height="16px">
<path fill-rule="evenodd"  fill="rgb(222, 222, 222)"
 d="M8.000,-0.000 C3.582,-0.000 -0.000,3.582 -0.000,8.000 C-0.000,12.418 3.582,16.000 8.000,16.000 C12.418,16.000 16.000,12.418 16.000,8.000 C16.000,3.582 12.418,-0.000 8.000,-0.000 L8.000,-0.000 ZM11.802,5.757 L11.043,6.517 L9.496,4.970 L8.909,5.557 L10.456,7.104 L6.662,10.897 L5.116,9.351 L4.529,9.937 L6.075,11.484 L5.697,11.862 L5.690,11.855 C5.648,11.924 5.580,11.974 5.499,11.992 L4.057,12.314 C4.035,12.319 4.013,12.321 3.991,12.321 C3.913,12.321 3.836,12.290 3.780,12.233 C3.707,12.161 3.677,12.056 3.699,11.956 L4.020,10.514 C4.039,10.433 4.089,10.365 4.158,10.323 L4.151,10.316 L10.256,4.210 C10.345,4.121 10.491,4.121 10.580,4.210 L11.803,5.433 C11.892,5.522 11.892,5.667 11.802,5.757 L11.802,5.757 Z"/>
</svg>