<svg 
 xmlns="http://www.w3.org/2000/svg"
 xmlns:xlink="http://www.w3.org/1999/xlink"
 width="11px" height="14px">
<path fill-rule="evenodd"  fill="rgb(222, 222, 222)"
 d="M-0.000,2.917 L-0.000,1.330 C-0.000,1.050 0.209,0.824 0.466,0.824 L3.665,0.824 L3.665,0.169 C3.665,0.076 3.734,-0.000 3.820,-0.000 L7.179,-0.000 C7.265,-0.000 7.335,0.076 7.335,0.169 L7.335,0.824 L10.534,0.824 C10.791,0.824 11.000,1.051 11.000,1.330 L11.000,2.917 L-0.000,2.917 ZM9.709,13.228 C9.692,13.660 9.365,14.000 8.967,14.000 L2.033,14.000 C1.635,14.000 1.307,13.660 1.291,13.228 L0.796,3.896 L10.204,3.896 L9.709,13.228 ZM3.931,6.711 C3.931,6.530 3.796,6.384 3.630,6.384 L3.147,6.384 C2.980,6.384 2.845,6.530 2.845,6.711 L2.845,11.185 C2.845,11.366 2.980,11.512 3.147,11.512 L3.630,11.512 C3.796,11.512 3.931,11.366 3.931,11.185 L3.931,6.711 ZM6.043,6.711 C6.043,6.530 5.908,6.384 5.741,6.384 L5.258,6.384 C5.092,6.384 4.957,6.530 4.957,6.711 L4.957,11.185 C4.957,11.366 5.092,11.512 5.258,11.512 L5.741,11.512 C5.908,11.512 6.043,11.366 6.043,11.185 L6.043,6.711 ZM8.154,6.711 C8.154,6.530 8.019,6.384 7.852,6.384 L7.370,6.384 C7.203,6.384 7.068,6.530 7.068,6.711 L7.068,11.185 C7.068,11.366 7.203,11.512 7.370,11.512 L7.852,11.512 C8.019,11.512 8.154,11.366 8.154,11.185 L8.154,6.711 Z"/>
</svg>